<svg width="33" height="33" viewBox="0 0 33 33" fill="none" xmlns="http://www.w3.org/2000/svg">
<path d="M32.3511 15.8718C32.3042 15.7663 31.1745 13.2601 28.6798 10.7652C25.3475 7.43235 21.1357 5.67084 16.5 5.67084C11.8643 5.67084 7.65255 7.43234 4.32025 10.7652C1.82546 13.2601 0.695767 15.7663 0.648938 15.8718C0.561041 16.0696 0.515625 16.2836 0.515625 16.5C0.515625 16.7165 0.561041 16.9305 0.648938 17.1283C0.695893 17.2338 1.82558 19.7395 4.32037 22.2339C7.65268 25.566 11.8643 27.3271 16.5 27.3271C21.1357 27.3271 25.3473 25.566 28.6796 22.2339C31.1744 19.7395 32.3041 17.2338 32.3511 17.1283C32.439 16.9305 32.4844 16.7165 32.4844 16.5C32.4844 16.2836 32.439 16.0696 32.3511 15.8718ZM26.4147 20.1232C23.6499 22.8505 20.3141 24.2333 16.5 24.2333C12.6859 24.2333 9.35011 22.8505 6.5853 20.1232C5.4981 19.0475 4.56267 17.8285 3.80487 16.5C4.56267 15.1711 5.49813 13.9517 6.58542 12.8756C9.35024 10.1477 12.6859 8.76459 16.5 8.76459C20.3141 8.76459 23.6498 10.1477 26.4146 12.8756C27.5018 13.9517 28.4373 15.1709 29.1951 16.4997C28.4374 17.8283 27.502 19.0474 26.4147 20.1232ZM16.5 10.8281C15.3782 10.8281 14.2816 11.1607 13.3489 11.784C12.4161 12.4072 11.6892 13.293 11.2599 14.3294C10.8306 15.3658 10.7183 16.5063 10.9371 17.6065C11.156 18.7067 11.6962 19.7174 12.4894 20.5106C13.2826 21.3038 14.2932 21.844 15.3935 22.0629C16.4937 22.2817 17.6341 22.1694 18.6705 21.7401C19.7069 21.3108 20.5928 20.5838 21.216 19.6511C21.8392 18.7184 22.1719 17.6218 22.1719 16.5C22.1702 14.9962 21.5721 13.5545 20.5087 12.4912C19.4454 11.4279 18.0038 10.8298 16.5 10.8281ZM16.5 19.0781C15.9901 19.0781 15.4916 18.9269 15.0677 18.6436C14.6437 18.3603 14.3133 17.9577 14.1181 17.4866C13.923 17.0155 13.8719 16.4971 13.9714 15.997C14.0709 15.4969 14.3164 15.0375 14.677 14.677C15.0375 14.3164 15.4969 14.0709 15.997 13.9714C16.4971 13.8719 17.0155 13.923 17.4866 14.1181C17.9577 14.3132 18.3603 14.6437 18.6436 15.0676C18.9269 15.4916 19.0781 15.9901 19.0781 16.5C19.0774 17.1835 18.8055 17.8388 18.3222 18.3221C17.8388 18.8055 17.1835 19.0773 16.5 19.0781Z" fill="#333333"/>
<path d="M28.8027 4L3.99988 28.8028" stroke="#333333" stroke-width="3" stroke-linecap="round"/>
</svg>
