<svg width="33" height="33" viewBox="0 0 33 33" fill="none" xmlns="http://www.w3.org/2000/svg">
<path d="M32.3511 15.8717C32.3042 15.7663 31.1745 13.26 28.6798 10.7651C25.3475 7.43229 21.1357 5.67078 16.5 5.67078C11.8643 5.67078 7.65255 7.43228 4.32025 10.7651C1.82546 13.26 0.695767 15.7663 0.648938 15.8717C0.561041 16.0695 0.515625 16.2835 0.515625 16.5C0.515625 16.7164 0.561041 16.9304 0.648938 17.1282C0.695893 17.2337 1.82558 19.7394 4.32037 22.2338C7.65268 25.5659 11.8643 27.327 16.5 27.327C21.1357 27.327 25.3473 25.5659 28.6796 22.2338C31.1744 19.7394 32.3041 17.2337 32.3511 17.1282C32.439 16.9304 32.4844 16.7164 32.4844 16.5C32.4844 16.2835 32.439 16.0695 32.3511 15.8717ZM26.4147 20.1231C23.6499 22.8504 20.3141 24.2333 16.5 24.2333C12.6859 24.2333 9.35011 22.8504 6.5853 20.1231C5.4981 19.0474 4.56267 17.8284 3.80487 16.4999C4.56267 15.171 5.49813 13.9517 6.58542 12.8756C9.35024 10.1476 12.6859 8.76453 16.5 8.76453C20.3141 8.76453 23.6498 10.1476 26.4146 12.8756C27.5018 13.9516 28.4373 15.1709 29.1951 16.4997C28.4374 17.8283 27.502 19.0473 26.4147 20.1231ZM16.5 10.828C15.3782 10.828 14.2816 11.1607 13.3489 11.7839C12.4161 12.4072 11.6892 13.293 11.2599 14.3294C10.8306 15.3658 10.7183 16.5062 10.9371 17.6064C11.156 18.7067 11.6962 19.7173 12.4894 20.5105C13.2826 21.3038 14.2932 21.844 15.3935 22.0628C16.4937 22.2817 17.6341 22.1693 18.6705 21.74C19.7069 21.3107 20.5928 20.5838 21.216 19.651C21.8392 18.7183 22.1719 17.6217 22.1719 16.4999C22.1702 14.9962 21.5721 13.5545 20.5087 12.4912C19.4454 11.4278 18.0038 10.8297 16.5 10.828ZM16.5 19.078C15.9901 19.078 15.4916 18.9268 15.0677 18.6435C14.6437 18.3603 14.3133 17.9576 14.1181 17.4865C13.923 17.0154 13.8719 16.497 13.9714 15.9969C14.0709 15.4968 14.3164 15.0375 14.677 14.6769C15.0375 14.3163 15.4969 14.0708 15.997 13.9713C16.4971 13.8718 17.0155 13.9229 17.4866 14.118C17.9577 14.3132 18.3603 14.6436 18.6436 15.0676C18.9269 15.4915 19.0781 15.99 19.0781 16.4999C19.0774 17.1834 18.8055 17.8388 18.3222 18.3221C17.8388 18.8054 17.1835 19.0773 16.5 19.078Z" fill="#333333"/>
</svg>
