<svg width="50" height="50" viewBox="0 0 50 50" fill="none" xmlns="http://www.w3.org/2000/svg">
<circle cx="25" cy="25" r="25" fill="#F4F6FA"/>
<path d="M11.6499 18.1187C12.6187 16.1 13.9874 14.3937 15.7124 12.975C18.0499 11.0437 20.7312 9.88124 23.7374 9.52499C27.2687 9.10624 30.5874 9.77499 33.6562 11.6125C34.4187 12.0687 35.1312 12.5875 35.8124 13.15C35.9812 13.2875 35.9624 13.3687 35.8187 13.5062C34.4249 14.8937 33.0312 16.2812 31.6499 17.6812C31.4874 17.8437 31.3999 17.8312 31.2249 17.7C27.1749 14.5812 21.2687 15.425 18.2499 19.55C17.7187 20.275 17.2874 21.0562 16.9874 21.9062C16.9624 21.9812 16.9124 22.05 16.8749 22.125C16.0687 21.5125 15.2562 20.9 14.4562 20.2812C13.5187 19.5625 12.5812 18.8437 11.6499 18.1187Z" fill="#E94335"/>
<path d="M16.875 27.9875C17.1438 28.5812 17.3688 29.2 17.7063 29.7562C19.125 32.0812 21.15 33.575 23.8188 34.1062C26.225 34.5875 28.5375 34.2625 30.6938 33.0562C30.7688 33.0187 30.8438 32.9812 30.9125 32.9437C30.9501 32.9812 30.9813 33.025 31.0188 33.0562C32.6313 34.3062 34.25 35.5562 35.8625 36.8062C35.0875 37.575 34.2063 38.1937 33.2688 38.7312C30.55 40.2812 27.6063 40.9062 24.5063 40.6687C20.6438 40.3687 17.3125 38.8437 14.5625 36.0937C13.3563 34.8875 12.3625 33.525 11.6438 31.9687C12.3125 31.4562 12.9813 30.95 13.65 30.4375C14.725 29.6187 15.8 28.8062 16.875 27.9875Z" fill="#34A853"/>
<path d="M35.8688 36.8062C34.2563 35.5562 32.6376 34.3062 31.0251 33.0562C30.9876 33.025 30.9501 32.9812 30.9188 32.9437C31.4751 32.5125 32.0438 32.0937 32.5001 31.5437C33.2626 30.6312 33.7688 29.6 34.0313 28.4437C34.0626 28.3 34.0376 28.25 33.8938 28.2562C33.8188 28.2625 33.7501 28.2562 33.6751 28.2562C31.1251 28.2562 28.5688 28.25 26.0188 28.2625C25.7376 28.2625 25.6751 28.1875 25.6813 27.9187C25.6938 26.1062 25.6938 24.2937 25.6813 22.4812C25.6813 22.25 25.7438 22.1875 25.9751 22.1875C30.6501 22.1937 35.3251 22.1937 40.0063 22.1875C40.2063 22.1875 40.2876 22.2375 40.3376 22.45C40.7188 24.1687 40.6938 25.8937 40.4626 27.6312C40.2751 29.0187 39.9376 30.3625 39.4188 31.6625C38.6501 33.5812 37.5188 35.2562 36.0313 36.6937C35.9751 36.7375 35.9188 36.7687 35.8688 36.8062Z" fill="#4285F3"/>
<path d="M16.875 27.9875C15.8 28.8062 14.725 29.6187 13.65 30.4375C12.9812 30.9437 12.3125 31.4562 11.6437 31.9687C11.125 31.0062 10.7875 29.9875 10.5125 28.9375C9.98745 26.9062 9.9062 24.8437 10.1937 22.775C10.4187 21.15 10.8875 19.5875 11.6437 18.125C12.5812 18.8437 13.5125 19.5688 14.45 20.2875C15.2562 20.9063 16.0625 21.5188 16.8687 22.1312C16.7312 22.8 16.5375 23.4562 16.475 24.1437C16.3625 25.3937 16.4812 26.6125 16.8375 27.8125C16.8625 27.8625 16.8687 27.925 16.875 27.9875Z" fill="#FABB06"/>
</svg>
