<svg width="166" height="166" viewBox="0 0 166 166" fill="none" xmlns="http://www.w3.org/2000/svg">
<path d="M83 88.1875C74.7921 88.1875 66.7685 85.7536 59.9438 81.1935C53.1192 76.6334 47.8001 70.152 44.659 62.5689C41.518 54.9857 40.6961 46.6415 42.2974 38.5913C43.8987 30.5411 47.8512 23.1465 53.6551 17.3426C59.459 11.5387 66.8536 7.58622 74.9038 5.98493C82.954 4.38364 91.2982 5.20548 98.8814 8.34652C106.465 11.4876 112.946 16.8067 117.506 23.6314C122.066 30.456 124.5 38.4796 124.5 46.6875C124.5 57.694 120.128 68.2497 112.345 76.0324C104.562 83.8152 94.0065 88.1875 83 88.1875ZM83 15.5625C76.8441 15.5625 70.8264 17.388 65.7079 20.808C60.5894 24.2281 56.6 29.0891 54.2443 34.7765C51.8885 40.4638 51.2721 46.722 52.4731 52.7597C53.674 58.7974 56.6384 64.3433 60.9913 68.6962C65.3442 73.0491 70.8902 76.0135 76.9278 77.2145C82.9655 78.4154 89.2237 77.799 94.911 75.4433C100.598 73.0875 105.459 69.0981 108.88 63.9796C112.3 58.8612 114.125 52.8435 114.125 46.6875C114.125 38.4327 110.846 30.5159 105.009 24.6788C99.1716 18.8418 91.2549 15.5625 83 15.5625Z" fill="#4762FF"/>
<path d="M119.312 160.813H46.6875C39.8084 160.813 33.2111 158.08 28.3469 153.216C23.4827 148.351 20.75 141.754 20.75 134.875V114.125C20.7502 113.225 20.9846 112.34 21.4303 111.558C21.8759 110.776 22.5175 110.123 23.2919 109.664L49.2294 94.1013C50.3996 93.5724 51.7245 93.4964 52.9475 93.888C54.1706 94.2795 55.2049 95.1109 55.8504 96.2211C56.4959 97.3313 56.7066 98.6415 56.4418 99.8981C56.177 101.155 55.4555 102.268 54.4169 103.024L31.125 117.082V134.875C31.125 139.002 32.7646 142.961 35.6832 145.879C38.6017 148.798 42.5601 150.438 46.6875 150.438H119.312C123.44 150.438 127.398 148.798 130.317 145.879C133.235 142.961 134.875 139.002 134.875 134.875V117.082L111.479 103.024C110.818 102.725 110.227 102.29 109.744 101.749C109.261 101.207 108.897 100.57 108.675 99.8784C108.454 99.1871 108.38 98.4571 108.459 97.7355C108.537 97.0139 108.766 96.3168 109.131 95.6893C109.496 95.0618 109.988 94.5178 110.577 94.0926C111.165 93.6673 111.836 93.3703 112.546 93.2206C113.256 93.0709 113.99 93.072 114.7 93.2237C115.41 93.3754 116.08 93.6744 116.667 94.1013L142.604 109.664C143.398 110.11 144.06 110.757 144.525 111.54C144.989 112.323 145.239 113.215 145.25 114.125V134.875C145.25 141.754 142.517 148.351 137.653 153.216C132.789 158.08 126.192 160.813 119.312 160.813Z" fill="#4762FF"/>
</svg>
