<svg width="50" height="50" viewBox="0 0 50 50" fill="none" xmlns="http://www.w3.org/2000/svg">
<path d="M0 25C0 11.1929 11.1929 0 25 0C38.8071 0 50 11.1929 50 25C50 38.8071 38.8071 50 25 50C11.1929 50 0 38.8071 0 25Z" fill="#005FF9"/>
<path fill-rule="evenodd" clip-rule="evenodd" d="M10.4167 24.9586C10.4167 16.9401 16.9586 10.4167 24.9999 10.4167C33.0411 10.4167 39.5831 16.9401 39.5831 24.9586C39.5831 26.0946 39.4883 27.0142 39.2759 27.9372L39.2728 27.9525C39.2723 27.9552 39.1669 28.3807 39.1086 28.5663C38.7482 29.7158 38.0957 30.6732 37.2214 31.3349C36.3736 31.9768 35.3224 32.3303 34.2615 32.3303C34.1305 32.3303 33.9985 32.325 33.8692 32.3147C32.3628 32.1941 31.0382 31.4035 30.2259 30.143C28.8289 31.5437 26.9755 32.3144 24.9999 32.3144C20.9325 32.3144 17.6234 29.0146 17.6234 24.9586C17.6234 20.9027 20.9325 17.603 24.9999 17.603C29.0673 17.603 32.3763 20.9027 32.3763 24.9586V27.3298C32.3824 28.7133 33.3134 29.2788 34.1088 29.3428C34.9002 29.4037 35.9534 28.9441 36.3203 27.4438C36.5012 26.621 36.5932 25.7847 36.5932 24.9586C36.5932 18.5841 31.3925 13.398 24.9999 13.398C18.6073 13.398 13.4066 18.5841 13.4066 24.9586C13.4066 31.3331 18.6073 36.5193 24.9999 36.5193C27.2251 36.5193 29.3892 35.8855 31.2583 34.6866L31.2919 34.665L33.2564 36.9427L33.2142 36.9714C30.7864 38.6261 27.9459 39.5007 24.9999 39.5007C16.9586 39.5007 10.4167 32.9772 10.4167 24.9586ZM24.9999 29.3329C27.4186 29.3329 29.3864 27.3706 29.3864 24.9586C29.3864 22.5467 27.4186 20.5846 24.9999 20.5846C22.581 20.5846 20.6133 22.5467 20.6133 24.9586C20.6133 27.3706 22.581 29.3329 24.9999 29.3329Z" fill="#FF9E00"/>
</svg>
