<svg width="50" height="50" viewBox="0 0 50 50" fill="none" xmlns="http://www.w3.org/2000/svg">
<g clip-path="url(#clip0_159_400)">
<path d="M25.0002 50.0003C38.8074 50.0003 50.0003 38.8074 50.0003 25.0002C50.0003 11.193 38.8074 0 25.0002 0C11.193 0 0 11.193 0 25.0002C0 38.8074 11.193 50.0003 25.0002 50.0003Z" fill="#E27E35"/>
<path d="M28.216 31.9025C29.8165 31.5362 31.3609 30.9039 32.7791 30.0116C33.8533 29.3322 34.1794 27.9118 33.5006 26.8356C32.8212 25.7568 31.4031 25.4317 30.3269 26.1098C27.1064 28.134 22.9648 28.1318 19.7443 26.1098C18.6655 25.432 17.2496 25.7571 16.5705 26.8356C15.8914 27.9098 16.2175 29.3322 17.2918 30.0116C18.7099 30.9039 20.2524 31.5362 21.8529 31.9025L17.4673 36.2927C16.5663 37.1937 16.5663 38.6475 17.4673 39.5462C17.918 39.9946 18.5059 40.2208 19.0918 40.2208C19.682 40.2208 20.2679 39.9946 20.7209 39.5462L25.0377 35.2314L29.3545 39.5462C30.2555 40.4472 31.7074 40.4472 32.6084 39.5462C33.5094 38.6472 33.5094 37.1891 32.6084 36.2927L28.216 31.9025ZM25.0377 14.3842C26.8332 14.3842 28.2913 15.8435 28.2913 17.6391C28.2913 19.4303 26.8332 20.8897 25.0377 20.8897C23.2464 20.8897 21.7818 19.4303 21.7818 17.6391C21.7818 15.8435 23.2464 14.3842 25.0377 14.3842ZM25.0377 25.4917C29.3704 25.4917 32.8923 21.9672 32.8923 17.6391C32.8923 13.3021 29.3704 9.77795 25.0377 9.77795C20.703 9.77795 17.1808 13.3025 17.1808 17.6348C17.1808 21.9672 20.703 25.4917 25.0377 25.4917Z" fill="white"/>
</g>
<defs>
<clipPath id="clip0_159_400">
<rect width="50" height="50" fill="white"/>
</clipPath>
</defs>
</svg>
