<svg width="50" height="50" viewBox="0 0 50 50" fill="none" xmlns="http://www.w3.org/2000/svg">
<path d="M25 50C38.8071 50 50 38.8071 50 25C50 11.1929 38.8071 0 25 0C11.1929 0 0 11.1929 0 25C0 38.8071 11.1929 50 25 50Z" fill="#4C75A3"/>
<path d="M23.9833 35.032H25.8831C25.8831 35.032 26.4601 34.9701 26.7531 34.6547C27.0239 34.3618 27.015 33.8183 27.015 33.8183C27.015 33.8183 26.9774 31.266 28.1627 30.8906C29.33 30.5177 30.8304 33.3566 32.4196 34.4462C33.6204 35.2719 34.5346 35.0921 34.5346 35.0921L38.7873 35.0324C38.7873 35.0324 41.011 34.8946 39.9546 33.1481C39.8699 33.0036 39.3422 31.854 36.794 29.4904C34.1282 27.0158 34.4856 27.4171 37.6971 23.1381C39.6525 20.5311 40.4336 18.941 40.1897 18.2597C39.9568 17.6103 38.5184 17.7813 38.5184 17.7813L33.7313 17.8113C33.7313 17.8113 33.3761 17.7627 33.1141 17.92C32.8569 18.0742 32.6926 18.4338 32.6926 18.4338C32.6926 18.4338 31.9336 20.4502 30.9258 22.1649C28.7951 25.7837 27.9428 25.9758 27.592 25.7505C26.7821 25.2266 26.9837 23.6475 26.9837 22.5245C26.9837 19.0178 27.5168 17.555 25.9498 17.1768C25.4284 17.0513 25.0441 16.9682 23.7147 16.955C22.008 16.9373 20.561 16.9594 19.7442 17.361C19.1981 17.6274 18.7788 18.2212 19.0338 18.2556C19.3511 18.2976 20.0681 18.4487 20.4476 18.966C20.938 19.6327 20.9203 21.1312 20.9203 21.1312C20.9203 21.1312 21.2022 25.2604 20.2634 25.7733C19.6175 26.125 18.732 25.4057 16.8319 22.1235C15.8599 20.4411 15.123 18.582 15.123 18.582C15.123 18.582 14.9811 18.2348 14.7302 18.0493C14.4218 17.824 13.9955 17.7519 13.9955 17.7519L9.44576 17.7813C9.44576 17.7813 8.76225 17.8003 8.51356 18.0976C8.28952 18.3615 8.49586 18.9075 8.49586 18.9075C8.49586 18.9075 12.0559 27.2373 16.0865 31.4366C19.784 35.2852 23.9833 35.032 23.9833 35.032Z" fill="white"/>
</svg>
